<?xml version="1.0" standalone="no"?>
<!DOCTYPE svg PUBLIC "-//W3C//DTD SVG 20010904//EN"
 "http://www.w3.org/TR/2001/REC-SVG-20010904/DTD/svg10.dtd">
<svg version="1.0" xmlns="http://www.w3.org/2000/svg"
 width="600.000000pt" height="600.000000pt" viewBox="0 0 600.000000 600.000000"
 preserveAspectRatio="xMidYMid meet">
<metadata>
Created by potrace 1.14, written by Peter Selinger 2001-2017
</metadata>
<g transform="translate(0.000000,600.000000) scale(0.100000,-0.100000)"
fill="#000000" stroke="none">
<path d="M2818 5945 c-2 -3 -42 -7 -89 -9 -46 -3 -95 -7 -109 -10 -14 -4 -45
-9 -70 -12 -25 -3 -76 -11 -115 -19 -38 -8 -81 -16 -95 -19 -88 -17 -269 -74
-445 -141 -193 -73 -484 -237 -667 -376 -421 -318 -760 -756 -953 -1227 -67
-165 -135 -381 -160 -512 -53 -273 -63 -394 -60 -675 2 -121 5 -229 8 -240 3
-11 8 -47 12 -80 63 -550 321 -1128 693 -1555 278 -318 653 -600 1000 -750 53
-23 111 -48 127 -55 38 -17 230 -85 253 -90 9 -2 49 -13 87 -24 78 -22 89 -24
230 -51 201 -37 299 -45 540 -45 390 1 683 54 1045 189 322 121 569 268 889
531 49 40 248 241 302 305 194 229 361 499 477 772 80 189 162 466 186 633 3
22 8 51 11 65 36 184 41 611 10 835 -30 217 -109 527 -172 675 -3 8 -7 17 -8
20 -15 43 -34 85 -99 222 -264 549 -728 1026 -1276 1312 -144 75 -404 179
-540 217 -25 7 -49 14 -55 15 -70 20 -273 64 -320 69 -74 8 -132 16 -155 21
-30 6 -476 14 -482 9z"/>
</g>
</svg>
